<?xml version="1.0" encoding="UTF-8" standalone="no"?>
<svg
   fill-rule="evenodd"
   stroke-linejoin="round"
   stroke-miterlimit="2"
   clip-rule="evenodd"
   viewBox="0 0 48 48"
   id="coffee"
   version="1.1"
   sodipodi:docname="coffee.svg"
   inkscape:version="1.3.2 (091e20e, 2023-11-25, custom)"
   xmlns:inkscape="http://www.inkscape.org/namespaces/inkscape"
   xmlns:sodipodi="http://sodipodi.sourceforge.net/DTD/sodipodi-0.dtd"
   xmlns="http://www.w3.org/2000/svg"
   xmlns:svg="http://www.w3.org/2000/svg">
  <defs
     id="defs1" />
  <sodipodi:namedview
     id="namedview1"
     pagecolor="#ffffff"
     bordercolor="#000000"
     borderopacity="0.25"
     inkscape:showpageshadow="2"
     inkscape:pageopacity="0.0"
     inkscape:pagecheckerboard="0"
     inkscape:deskcolor="#d1d1d1"
     inkscape:zoom="17.104167"
     inkscape:cx="24"
     inkscape:cy="24"
     inkscape:window-width="1920"
     inkscape:window-height="1017"
     inkscape:window-x="-8"
     inkscape:window-y="-8"
     inkscape:window-maximized="1"
     inkscape:current-layer="coffee" />
  <path
     d="M10.904 38c-2.762-2.483-4.58-5.956-5.71-9.797-.685-2.33-1.189-7.099-1.189-7.099A.999.999 0 0 1 5 20h34a.998.998 0 0 1 .996 1.084s-.112 1.321-.3 2.916H44a1 1 0 0 1 1 1v1.652A8.351 8.351 0 0 1 36.652 35h-.21a14.093 14.093 0 0 1-2.396 3H40a1 1 0 0 1 1 1 5 5 0 0 1-5 5H8a5 5 0 0 1-5-5 1 1 0 0 1 1-1h6.904Zm27.925 2H5.171A3 3 0 0 0 8 42h28a3 3 0 0 0 2.829-2Zm-8.096-2c3.629-2.139 5.329-5.881 6.355-10.24.369-1.569.667-4.263.815-5.76H6.121c.181 1.484.543 4.113.992 5.639 1.274 4.334 3.465 8.188 7.154 10.361h16.466Zm8.702-12a27.82 27.82 0 0 1-.4 2.218c-.395 1.676-.889 3.264-1.532 4.725A6.349 6.349 0 0 0 43 26.652V26h-3.565Zm-18.988-9.894S19 15.298 19 13s1.447-3.106 1.447-3.106a1 1 0 1 0-.894-1.788S17 9.297 17 13c0 3.703 2.553 4.894 2.553 4.894a1 1 0 1 0 .894-1.788Zm4-2.212S27 12.703 27 9c0-3.703-2.553-4.894-2.553-4.894a1 1 0 1 0-.894 1.788S25 6.702 25 9s-1.447 3.106-1.447 3.106a1 1 0 1 0 .894 1.788Z"
     id="path1"
     style="fill:#f9f9f9" />
</svg>
